<?xml version='1.0' encoding='ascii'?>
<svg xmlns="http://www.w3.org/2000/svg" version="1.1" width="1920" height="1080">
    <g id="ViewLayer_LineSet" xmlns:inkscape="http://www.inkscape.org/namespaces/inkscape" inkscape:groupmode="lineset" inkscape:label="ViewLayer_LineSet">
        <g xmlns:inkscape="http://www.inkscape.org/namespaces/inkscape" inkscape:groupmode="layer" id="strokes" inkscape:label="strokes">
            <path fill="none" stroke-width="3.0" stroke-linecap="butt" stroke-opacity="1.0" stroke="rgb(0, 0, 0)" stroke-linejoin="miter" d=" M 554.460, 670.139 561.243, 672.025 561.631, 672.068 568.583, 672.564 575.355, 671.815 575.819, 671.757 576.006, 671.702 583.117, 669.425 589.644, 665.823 592.166, 663.703 595.338, 661.036 " />
            <path fill="none" stroke-width="3.0" stroke-linecap="butt" stroke-opacity="1.0" stroke="rgb(0, 0, 0)" stroke-linejoin="miter" d=" M 603.006, 619.934 602.140, 618.381 599.417, 613.498 594.627, 607.880 594.305, 607.575 588.557, 603.048 582.026, 599.744 574.963, 597.789 574.582, 597.707 573.935, 597.635 573.044, 597.577 567.638, 597.258 561.579, 597.804 560.860, 597.894 560.403, 597.988 553.450, 600.138 553.107, 600.319 546.559, 603.887 540.832, 608.651 536.150, 614.428 532.806, 620.784 " />
            <path fill="none" stroke-width="3.0" stroke-linecap="butt" stroke-opacity="1.0" stroke="rgb(0, 0, 0)" stroke-linejoin="miter" d=" M 532.806, 620.784 531.701, 621.128 531.471, 621.243 526.756, 623.815 522.633, 627.246 519.262, 631.404 516.774, 636.129 515.265, 641.240 514.794, 646.539 515.380, 651.823 517.002, 656.886 519.595, 661.534 523.061, 665.586 527.264, 668.886 532.043, 671.307 532.216, 671.377 537.298, 672.791 537.587, 672.822 542.572, 673.178 547.468, 672.639 547.792, 672.598 547.916, 672.559 553.038, 670.922 554.460, 670.139 " />
            <path fill="none" stroke-width="3.0" stroke-linecap="butt" stroke-opacity="1.0" stroke="rgb(0, 0, 0)" stroke-linejoin="miter" d=" M 592.166, 663.703 595.554, 666.370 595.733, 666.477 600.389, 668.839 605.427, 670.239 605.687, 670.270 610.652, 670.622 615.427, 670.091 615.771, 670.049 615.919, 670.009 620.964, 668.389 625.596, 665.826 629.636, 662.419 632.930, 658.299 635.353, 653.625 636.812, 648.576 637.253, 643.346 636.659, 638.136 635.053, 633.143 632.498, 628.559 629.090, 624.559 628.908, 624.365 624.812, 621.140 620.159, 618.786 615.127, 617.393 614.871, 617.342 614.425, 617.298 609.910, 617.014 605.657, 617.429 605.132, 617.488 604.791, 617.548 602.140, 618.381 " />
            <path fill="none" stroke-width="3.0" stroke-linecap="butt" stroke-opacity="1.0" stroke="rgb(0, 0, 0)" stroke-linejoin="miter" d=" M 1574.413, 479.358 1574.462, 479.393 1575.828, 480.163 1584.906, 484.357 1586.783, 485.224 1588.622, 485.682 1598.360, 487.954 1599.569, 488.236 1600.933, 488.427 1602.676, 488.570 1604.733, 488.658 1607.025, 488.690 1609.465, 488.663 1611.960, 488.579 1614.416, 488.441 1616.740, 488.254 1617.280, 488.195 1618.843, 488.025 1620.644, 487.763 1622.074, 487.477 1623.077, 487.179 1632.630, 484.222 1634.655, 483.596 1643.415, 478.772 1645.229, 477.772 " />
            <path fill="none" stroke-width="3.0" stroke-linecap="butt" stroke-opacity="1.0" stroke="rgb(0, 0, 0)" stroke-linejoin="miter" d=" M 1646.816, 476.896 1654.468, 470.458 1656.443, 468.797 " />
            <path fill="none" stroke-width="3.0" stroke-linecap="butt" stroke-opacity="1.0" stroke="rgb(0, 0, 0)" stroke-linejoin="miter" d=" M 1669.889, 447.940 1670.315, 446.404 1672.976, 436.764 1673.654, 434.309 1674.319, 424.331 1674.483, 421.870 1674.281, 420.420 1672.901, 410.516 1672.770, 409.576 1669.397, 400.162 1668.589, 397.907 1663.369, 389.378 1662.110, 387.320 1655.275, 380.020 1653.591, 378.223 1652.073, 376.927 1643.903, 371.161 1642.159, 369.930 1632.983, 365.953 1631.005, 365.096 1629.217, 364.459 1626.562, 363.930 1616.777, 362.002 1615.035, 361.797 1612.974, 361.667 1610.673, 361.616 1608.222, 361.646 1605.718, 361.756 1603.256, 361.941 1600.933, 362.195 1598.839, 362.507 1597.055, 362.865 1595.648, 363.256 1586.055, 366.078 1585.014, 366.384 1583.119, 367.179 1574.333, 371.954 1572.541, 372.928 1571.152, 374.068 1563.510, 380.516 1561.609, 382.120 1556.290, 388.795 " />
            <path fill="none" stroke-width="3.0" stroke-linecap="butt" stroke-opacity="1.0" stroke="rgb(0, 0, 0)" stroke-linejoin="miter" d=" M 1617.280, 488.195 1620.987, 489.899 1622.256, 490.219 1630.089, 492.040 1631.042, 492.173 1632.269, 492.273 1633.721, 492.335 1635.343, 492.357 1637.074, 492.338 1638.848, 492.279 1640.596, 492.182 1642.254, 492.051 1643.756, 491.890 1645.046, 491.706 1646.074, 491.507 1646.800, 491.298 1654.995, 488.758 1655.781, 488.345 1663.635, 484.022 1670.453, 478.288 1675.969, 471.365 1679.971, 463.520 1680.303, 462.480 1682.664, 453.927 1683.247, 445.125 1682.032, 436.417 1679.068, 428.144 1674.474, 420.627 1674.281, 420.420 " />
            <path fill="none" stroke-width="3.0" stroke-linecap="butt" stroke-opacity="1.0" stroke="rgb(0, 0, 0)" stroke-linejoin="miter" d=" M 1595.403, 400.388 1594.171, 399.494 1587.044, 394.367 1579.012, 390.807 1577.656, 390.371 1569.695, 388.719 1568.685, 388.535 1567.400, 388.395 1565.887, 388.307 1564.206, 388.273 1562.423, 388.294 1560.605, 388.370 1558.824, 388.498 1557.149, 388.673 1556.290, 388.795 1555.645, 388.887 1554.368, 389.134 1553.369, 389.402 1545.581, 391.707 1544.249, 392.253 1536.525, 396.454 1535.579, 397.241 1528.622, 403.112 1522.981, 410.190 1518.871, 418.206 1516.450, 426.854 1515.811, 435.804 1516.979, 444.716 1517.147, 445.899 1520.062, 454.337 1524.623, 462.033 1530.662, 468.692 1537.952, 474.057 1539.010, 474.628 1546.938, 478.308 1548.321, 478.650 1556.209, 480.496 1557.223, 480.638 1558.510, 480.745 1560.020, 480.811 1561.696, 480.835 1563.474, 480.815 1565.286, 480.753 1567.064, 480.650 1568.740, 480.511 1570.249, 480.340 1571.534, 480.145 1572.545, 479.932 1574.413, 479.358 1580.314, 477.541 1581.693, 477.103 1589.416, 472.864 1590.466, 472.217 1595.501, 467.977 1597.467, 466.320 1603.139, 459.202 1607.262, 451.138 " />
            <path fill="none" stroke-width="3.0" stroke-linecap="butt" stroke-opacity="1.0" stroke="rgb(0, 0, 0)" stroke-linejoin="miter" d=" M 1609.809, 441.237 1610.427, 432.190 " />
            <path fill="none" stroke-width="3.0" stroke-linecap="butt" stroke-opacity="1.0" stroke="rgb(0, 0, 0)" stroke-linejoin="miter" d=" M 1257.610, 707.535 1247.895, 705.166 1238.179, 702.798 1228.464, 700.429 1218.749, 698.060 1209.033, 695.691 1199.318, 693.323 1189.602, 690.954 1188.404, 690.662 1181.480, 688.974 1173.789, 690.045 1170.230, 699.391 1166.672, 708.736 1163.114, 718.082 1159.556, 727.427 1155.997, 736.773 1152.439, 746.118 1150.199, 752.001 " />
            <path fill="none" stroke-width="3.0" stroke-linecap="butt" stroke-opacity="1.0" stroke="rgb(0, 0, 0)" stroke-linejoin="miter" d=" M 1665.428, 751.929 1665.250, 741.930 1665.071, 731.932 1664.901, 722.446 1664.846, 719.353 1664.667, 709.355 1664.488, 699.356 1664.309, 689.358 1664.130, 679.359 1663.952, 669.361 1663.773, 659.363 1663.727, 656.828 1653.785, 657.904 1650.659, 658.242 1640.807, 659.957 1630.955, 661.672 1621.103, 663.387 1611.251, 665.101 1601.400, 666.816 1591.548, 668.531 1581.696, 670.246 1571.844, 671.961 1561.992, 673.676 1552.140, 675.391 1542.288, 677.106 1532.437, 678.821 1522.585, 680.536 1512.733, 682.250 1502.881, 683.965 1493.029, 685.680 1489.147, 686.356 1479.295, 688.071 1469.443, 689.786 1459.591, 691.501 1449.739, 693.216 1448.732, 693.391 1438.880, 695.106 1429.760, 696.693 1419.909, 698.408 1410.057, 700.123 1400.205, 701.838 1395.406, 702.674 1385.554, 704.389 1375.702, 706.103 1365.850, 707.818 1355.998, 709.533 1346.146, 711.248 1343.317, 711.741 " />
            <path fill="none" stroke-width="3.0" stroke-linecap="butt" stroke-opacity="1.0" stroke="rgb(0, 0, 0)" stroke-linejoin="miter" d=" M 1013.146, 874.881 1016.520, 865.468 1019.261, 857.819 1022.327, 849.266 1022.545, 848.657 1023.385, 846.314 1026.759, 836.900 1030.133, 827.486 1033.507, 818.073 1036.881, 808.659 1040.255, 799.246 1043.629, 789.832 1047.003, 780.418 1050.376, 771.005 1053.750, 761.591 1057.124, 752.177 1060.498, 742.764 1063.872, 733.350 1065.781, 728.025 " />
            <path fill="none" stroke-width="3.0" stroke-linecap="butt" stroke-opacity="1.0" stroke="rgb(0, 0, 0)" stroke-linejoin="miter" d=" M 1213.192, 769.893 1210.200, 769.043 1200.580, 766.311 1190.961, 763.579 1188.537, 762.890 1178.917, 760.158 1169.298, 757.426 1159.678, 754.694 1156.796, 753.875 1150.199, 752.001 1147.182, 751.144 1140.297, 749.189 1130.677, 746.457 1130.147, 746.306 1120.527, 743.574 1110.908, 740.842 1101.386, 738.137 1091.766, 735.405 1082.146, 732.673 1072.527, 729.941 1065.781, 728.025 1059.216, 728.653 1055.839, 738.066 1052.463, 747.478 1049.086, 756.891 1045.709, 766.304 1042.332, 775.716 1038.955, 785.129 1037.322, 789.681 1033.945, 799.093 1030.569, 808.506 1027.192, 817.918 1023.815, 827.331 1020.438, 836.744 1017.061, 846.156 1016.137, 848.733 1016.123, 848.772 1015.904, 849.382 1013.744, 855.402 1013.234, 856.823 1009.858, 866.235 1007.190, 873.670 " />
            <path fill="none" stroke-width="3.0" stroke-linecap="butt" stroke-opacity="1.0" stroke="rgb(0, 0, 0)" stroke-linejoin="miter" d=" M 1591.576, 769.100 1591.422, 759.102 1591.268, 749.103 1591.114, 739.104 1590.960, 729.105 1590.847, 721.727 1590.799, 718.620 1590.645, 708.621 1590.550, 702.435 1580.576, 703.156 1577.857, 703.353 1568.013, 705.112 1558.169, 706.871 1548.325, 708.630 1538.481, 710.388 1528.636, 712.147 1518.792, 713.906 1508.948, 715.665 1499.104, 717.424 1492.833, 718.544 1489.540, 719.133 1480.989, 720.661 1471.145, 722.419 1462.111, 724.034 1452.267, 725.792 1449.082, 726.361 1439.238, 728.120 1430.090, 729.755 1425.124, 730.642 " />
            <path fill="none" stroke-width="3.0" stroke-linecap="butt" stroke-opacity="1.0" stroke="rgb(0, 0, 0)" stroke-linejoin="miter" d=" M 1213.192, 769.893 1223.036, 768.133 1232.880, 766.373 1241.367, 764.856 " />
            <path fill="none" stroke-width="3.0" stroke-linecap="butt" stroke-opacity="1.0" stroke="rgb(0, 0, 0)" stroke-linejoin="miter" d=" M 1608.239, 772.950 1600.841, 771.241 1591.576, 769.100 1581.833, 766.849 1578.797, 766.148 1569.053, 763.897 1559.310, 761.645 1549.567, 759.394 1539.823, 757.143 1530.080, 754.892 1520.337, 752.641 1510.594, 750.390 1505.519, 749.217 1495.775, 746.966 1489.857, 745.598 1480.113, 743.347 1470.370, 741.096 1462.279, 739.227 1452.535, 736.975 1449.187, 736.202 1439.444, 733.951 1430.111, 731.794 1428.455, 731.412 1425.124, 730.642 1415.381, 728.391 1405.637, 726.140 1395.894, 723.889 1395.592, 723.819 1385.849, 721.568 1376.105, 719.316 1366.362, 717.065 1356.619, 714.814 1346.875, 712.563 1345.489, 712.243 1343.317, 711.741 1333.573, 709.490 1331.843, 709.090 1322.099, 706.838 1315.965, 705.421 1312.376, 704.592 1302.633, 702.341 1292.890, 700.090 1284.926, 698.250 1275.183, 695.998 1270.192, 694.845 1266.878, 695.224 1263.428, 695.619 1260.905, 695.908 1258.179, 705.529 1257.610, 707.535 1256.832, 710.280 1254.106, 719.901 1251.380, 729.522 1248.653, 739.143 1245.927, 748.764 1243.201, 758.386 1241.780, 763.400 1241.367, 764.856 1238.641, 774.477 1235.914, 784.098 1233.188, 793.719 1230.462, 803.341 1227.735, 812.962 1225.009, 822.583 1222.283, 832.204 1219.556, 841.825 1217.652, 848.545 1217.477, 849.163 1214.751, 858.785 1212.024, 868.406 1211.326, 870.872 1211.008, 871.991 1210.506, 873.764 1210.168, 874.958 1209.418, 877.603 1218.123, 878.891 1228.123, 878.892 1238.123, 878.894 1248.123, 878.895 1258.123, 878.897 1267.702, 878.898 1277.702, 878.900 1287.702, 878.902 1297.702, 878.903 1307.702, 878.905 1317.030, 878.906 1327.030, 878.908 1337.030, 878.909 1347.030, 878.911 1357.030, 878.913 1367.030, 878.914 1377.030, 878.916 1387.030, 878.917 1397.030, 878.919 1407.030, 878.920 1417.030, 878.922 1427.030, 878.924 1437.030, 878.925 1447.030, 878.927 1457.030, 878.928 1467.030, 878.930 1477.030, 878.931 1487.030, 878.933 1497.030, 878.935 1507.030, 878.936 1517.030, 878.938 1527.030, 878.939 1537.030, 878.941 1547.030, 878.942 1557.030, 878.944 1567.030, 878.946 1577.030, 878.947 1587.030, 878.949 1597.030, 878.950 1607.030, 878.952 1617.030, 878.953 1628.383, 878.955 1635.692, 878.956 1645.692, 878.958 1655.692, 878.960 1665.692, 878.961 1675.692, 878.963 1685.692, 878.964 1695.692, 878.966 1705.692, 878.967 1715.692, 878.969 1725.692, 878.971 1735.692, 878.972 1745.692, 878.974 1755.692, 878.975 1765.692, 878.977 1775.692, 878.978 1785.692, 878.980 1795.692, 878.982 1802.653, 878.983 1802.039, 869.002 1801.424, 859.021 1801.175, 854.968 1801.054, 853.002 1800.439, 843.021 1799.825, 833.040 1799.210, 823.059 1798.596, 813.078 1797.981, 803.097 1797.367, 793.116 1796.752, 783.135 1796.138, 773.154 1795.523, 763.173 1794.909, 753.191 1794.294, 743.210 1793.680, 733.229 1793.034, 722.746 1792.903, 720.621 1792.726, 717.735 1782.737, 718.219 1777.282, 718.483 1770.862, 720.402 1761.281, 723.267 1760.909, 723.379 1751.328, 726.243 1741.747, 729.108 1732.167, 731.973 1722.586, 734.838 1713.005, 737.703 1703.424, 740.567 1693.843, 743.432 1684.262, 746.297 1674.682, 749.162 1665.428, 751.929 1655.848, 754.793 1652.361, 755.836 1642.781, 758.701 1633.200, 761.565 1623.619, 764.430 1614.038, 767.295 1604.457, 770.160 1600.841, 771.241 " />
            <path fill="none" stroke-width="3.0" stroke-linecap="butt" stroke-opacity="1.0" stroke="rgb(0, 0, 0)" stroke-linejoin="miter" d=" M 1218.123, 878.891 1219.235, 874.962 1220.074, 871.997 1222.796, 862.374 1225.518, 852.752 1226.494, 849.302 1226.670, 848.680 1229.392, 839.058 1232.115, 829.435 1234.837, 819.813 1237.559, 810.191 1240.281, 800.568 1243.004, 790.946 1245.726, 781.324 1248.448, 771.701 1251.277, 761.704 1253.999, 752.081 1256.721, 742.459 1259.443, 732.837 1262.166, 723.214 1263.527, 718.401 1266.021, 709.586 1268.744, 699.963 1270.192, 694.845 " />
            <path fill="none" stroke-width="3.0" stroke-linecap="butt" stroke-opacity="1.0" stroke="rgb(0, 0, 0)" stroke-linejoin="miter" d=" M 1608.239, 772.950 1617.819, 770.083 1627.400, 767.216 1636.980, 764.349 1646.560, 761.481 1656.140, 758.614 1665.498, 755.813 1675.078, 752.946 1684.658, 750.079 1694.238, 747.211 1703.818, 744.344 1713.399, 741.477 1722.979, 738.610 1732.559, 735.742 1742.139, 732.875 1751.719, 730.008 1761.299, 727.141 1770.879, 724.273 1780.459, 721.406 1783.398, 720.527 1792.726, 717.735 " />
            <path fill="none" stroke-width="3.0" stroke-linecap="butt" stroke-opacity="1.0" stroke="rgb(0, 0, 0)" stroke-linejoin="miter" d=" M 975.511, 634.387 974.429, 633.492 969.991, 631.097 969.731, 630.989 968.676, 630.668 966.972, 630.149 965.037, 629.560 964.715, 629.505 964.217, 629.454 960.154, 629.104 955.860, 629.425 955.433, 629.472 955.187, 629.525 950.401, 630.919 945.982, 633.234 945.521, 633.608 944.710, 634.265 942.098, 636.382 941.916, 636.573 938.691, 640.461 937.142, 643.320 937.136, 643.332 936.285, 644.902 934.788, 649.726 934.260, 654.749 934.721, 659.777 935.997, 664.090 936.019, 664.163 936.153, 664.618 938.503, 669.085 941.680, 673.006 945.563, 676.231 950.002, 678.635 954.827, 680.125 954.965, 680.162 955.291, 680.199 959.852, 680.642 964.575, 680.239 964.825, 680.205 969.609, 678.793 974.021, 676.462 974.198, 676.354 978.122, 673.161 981.349, 669.264 983.754, 664.813 984.704, 661.738 985.246, 659.981 985.265, 659.792 985.766, 654.953 985.296, 649.922 985.162, 649.472 " />
            <path fill="none" stroke-width="3.0" stroke-linecap="butt" stroke-opacity="1.0" stroke="rgb(0, 0, 0)" stroke-linejoin="miter" d=" M 1415.697, 580.631 1415.919, 582.659 1416.540, 584.609 1417.443, 587.444 1419.887, 591.846 1423.159, 595.694 1427.135, 598.842 1431.661, 601.168 1431.974, 601.294 1436.725, 602.644 1437.072, 602.703 1437.595, 602.756 1441.662, 603.024 1445.466, 602.729 1446.055, 602.673 1446.475, 602.611 1446.711, 602.546 1447.765, 602.231 1451.555, 601.099 1456.009, 598.740 1459.900, 595.558 1463.080, 591.677 1463.281, 591.379 1465.652, 586.908 1467.089, 582.068 1467.536, 577.048 1466.976, 572.042 1465.431, 567.243 1462.963, 562.836 1459.667, 558.992 1455.671, 555.857 1455.239, 555.629 1450.830, 553.393 1446.065, 552.082 1445.720, 552.006 1445.199, 551.940 1444.521, 551.884 1443.713, 551.842 1441.128, 551.743 1438.907, 551.871 1438.056, 551.923 1437.323, 551.986 1436.737, 552.060 1436.320, 552.139 1431.704, 553.505 1431.254, 553.668 1426.808, 556.022 1422.923, 559.196 1422.691, 559.479 " />
            <path fill="none" stroke-width="3.0" stroke-linecap="butt" stroke-opacity="1.0" stroke="rgb(0, 0, 0)" stroke-linejoin="miter" d=" M 1229.084, 491.137 1229.066, 490.961 1227.585, 486.171 1227.403, 485.659 1225.024, 481.289 1221.831, 477.484 1217.948, 474.391 1213.526, 472.128 1213.065, 471.914 1210.706, 471.271 1208.499, 470.671 1208.080, 470.570 1207.495, 470.481 1206.766, 470.408 1205.920, 470.353 1204.992, 470.319 1204.016, 470.306 1203.030, 470.316 1202.073, 470.348 1201.181, 470.401 1200.388, 470.473 1199.726, 470.560 1199.220, 470.660 1198.138, 470.965 1194.849, 471.893 1194.202, 472.105 1189.882, 474.358 1189.481, 474.676 1188.008, 475.875 1185.590, 477.841 1182.399, 481.700 1180.029, 486.106 1178.573, 490.888 1178.086, 495.865 1178.243, 497.418 " />
            <path fill="none" stroke-width="3.0" stroke-linecap="butt" stroke-opacity="1.0" stroke="rgb(0, 0, 0)" stroke-linejoin="miter" d=" M 1201.666, 521.406 1201.727, 521.409 1202.654, 521.439 1203.883, 521.455 1204.612, 521.443 1205.568, 521.417 1206.459, 521.374 1207.252, 521.315 1207.916, 521.242 1208.426, 521.159 1208.761, 521.068 1212.130, 520.094 1213.446, 519.714 " />
            <path fill="none" stroke-width="3.0" stroke-linecap="butt" stroke-opacity="1.0" stroke="rgb(0, 0, 0)" stroke-linejoin="miter" d=" M 985.162, 649.472 988.744, 648.203 997.631, 643.617 1005.486, 639.564 1011.709, 636.353 1020.368, 631.351 1021.063, 630.950 1029.723, 625.948 1037.868, 621.244 1046.527, 616.243 1047.362, 615.761 1048.977, 614.790 1057.548, 609.638 1066.119, 604.486 1074.690, 599.334 1083.260, 594.182 1090.193, 590.015 1098.722, 584.794 1101.554, 583.060 1110.083, 577.839 1112.977, 576.068 1121.505, 570.847 1130.034, 565.626 1132.899, 563.873 1137.356, 561.120 1140.255, 559.330 1147.094, 555.107 1155.602, 549.853 1164.111, 544.599 1168.211, 542.067 " />
            <path fill="none" stroke-width="3.0" stroke-linecap="butt" stroke-opacity="1.0" stroke="rgb(0, 0, 0)" stroke-linejoin="miter" d=" M 1212.130, 520.094 1221.670, 523.093 1222.704, 523.418 1232.244, 526.417 1241.784, 529.416 1245.177, 530.482 1254.720, 533.472 1264.262, 536.463 1266.168, 537.060 1275.710, 540.050 1280.354, 541.505 1289.908, 544.460 1299.462, 547.414 1309.015, 550.369 1315.024, 552.227 1323.526, 554.856 1333.104, 557.729 1342.682, 560.603 1352.260, 563.476 1361.839, 566.349 1366.007, 567.600 1375.640, 570.286 1385.272, 572.972 1394.905, 575.658 1399.311, 576.886 1401.107, 577.387 1410.868, 579.558 1415.697, 580.631 " />
            <path fill="none" stroke-width="3.0" stroke-linecap="butt" stroke-opacity="1.0" stroke="rgb(0, 0, 0)" stroke-linejoin="miter" d=" M 1422.691, 559.479 1420.975, 558.416 1411.835, 554.360 1402.694, 550.304 1397.797, 548.131 1395.486, 547.221 1386.103, 543.763 1376.719, 540.306 1367.336, 536.848 1361.000, 534.513 1351.533, 531.292 1342.066, 528.071 1332.599, 524.849 1323.132, 521.628 1319.240, 520.303 1314.820, 518.858 1305.315, 515.750 1295.810, 512.641 1286.306, 509.533 1276.896, 506.456 1267.374, 503.402 1266.015, 502.966 1256.493, 499.912 1246.970, 496.858 1241.508, 495.106 1231.983, 492.063 1229.084, 491.137 " />
            <path fill="none" stroke-width="3.0" stroke-linecap="butt" stroke-opacity="1.0" stroke="rgb(0, 0, 0)" stroke-linejoin="miter" d=" M 1178.243, 497.418 1169.746, 502.691 1163.076, 506.830 1154.586, 512.113 1147.076, 516.786 1140.246, 521.036 1131.756, 526.319 1127.765, 528.802 1119.304, 534.133 1110.844, 539.465 1102.383, 544.796 1101.596, 545.292 1100.648, 545.889 1092.187, 551.220 1085.199, 555.624 1076.802, 561.054 1068.404, 566.483 1060.006, 571.913 1051.609, 577.342 1043.211, 582.772 1042.764, 583.061 1037.981, 586.323 1029.719, 591.957 1021.458, 597.592 1013.196, 603.226 1007.772, 606.926 1005.620, 608.594 997.717, 614.721 989.814, 620.848 985.707, 624.032 985.162, 624.510 978.173, 631.663 975.511, 634.387 " />
            <path fill="none" stroke-width="3.0" stroke-linecap="butt" stroke-opacity="1.0" stroke="rgb(0, 0, 0)" stroke-linejoin="miter" d=" M 1137.356, 561.120 1140.255, 559.332 1147.094, 555.113 1155.604, 549.862 1164.115, 544.611 1167.884, 542.286 1176.391, 537.028 1184.897, 531.771 1188.107, 529.786 1190.347, 528.402 1198.853, 523.145 1201.666, 521.406 " />
            <path fill="none" stroke-width="3.0" stroke-linecap="butt" stroke-opacity="1.0" stroke="rgb(0, 0, 0)" stroke-linejoin="miter" d=" M 1130.147, 746.306 1130.457, 745.678 1133.671, 736.209 1136.886, 726.740 1138.060, 723.283 1140.009, 713.474 1140.288, 712.070 1142.238, 702.262 1142.668, 700.099 1143.319, 690.121 1143.971, 680.142 1144.206, 676.536 1143.548, 666.557 1142.890, 656.579 1142.654, 653.004 1140.697, 643.198 1140.273, 641.073 1138.316, 631.266 1138.046, 629.915 1134.823, 620.449 1131.600, 610.982 1130.472, 607.668 1126.037, 598.705 1121.603, 589.742 1120.072, 586.646 1114.501, 578.341 1112.977, 576.068 " />
            <path fill="none" stroke-width="3.0" stroke-linecap="butt" stroke-opacity="1.0" stroke="rgb(0, 0, 0)" stroke-linejoin="miter" d=" M 810.638, 765.273 816.058, 773.677 821.479, 782.080 823.249, 784.824 829.720, 792.448 836.191, 800.072 836.697, 800.669 " />
            <path fill="none" stroke-width="3.0" stroke-linecap="butt" stroke-opacity="1.0" stroke="rgb(0, 0, 0)" stroke-linejoin="miter" d=" M 802.184, 608.002 798.905, 617.449 795.626, 626.896 794.562, 629.962 792.524, 639.752 790.486, 649.542 789.823, 652.730 789.061, 662.701 788.300, 672.672 788.051, 675.927 788.581, 685.913 789.110, 695.899 789.284, 699.166 791.098, 709.000 792.912, 718.834 793.507, 722.055 796.578, 731.572 799.650, 741.089 800.658, 744.210 801.775, 746.570 " />
            <path fill="none" stroke-width="3.0" stroke-linecap="butt" stroke-opacity="1.0" stroke="rgb(0, 0, 0)" stroke-linejoin="miter" d=" M 936.019, 664.163 926.793, 660.303 917.568, 656.444 908.343, 652.585 899.117, 648.726 889.892, 644.867 880.667, 641.008 871.441, 637.149 862.216, 633.289 852.991, 629.430 843.765, 625.571 834.540, 621.712 829.004, 619.396 819.786, 615.519 813.397, 612.831 804.194, 608.921 803.599, 608.668 802.184, 608.002 809.375, 610.946 818.609, 614.784 823.138, 616.667 832.364, 620.525 839.835, 623.650 849.053, 627.527 858.271, 631.403 867.489, 635.280 876.707, 639.156 885.925, 643.033 895.143, 646.909 904.361, 650.786 913.579, 654.662 922.797, 658.539 932.016, 662.415 935.997, 664.090 " />
            <path fill="none" stroke-width="3.0" stroke-linecap="butt" stroke-opacity="1.0" stroke="rgb(0, 0, 0)" stroke-linejoin="miter" d=" M 967.643, 469.785 957.660, 469.197 947.678, 468.608 944.590, 468.426 934.616, 469.145 924.641, 469.864 921.559, 470.086 911.763, 472.097 901.968, 474.108 898.938, 474.730 889.486, 477.995 880.034, 481.260 877.103, 482.273 868.153, 486.734 859.203, 491.195 856.417, 492.584 848.118, 498.164 839.819, 503.743 837.223, 505.488 829.712, 512.090 822.201, 518.692 819.841, 520.767 813.241, 528.280 806.641, 535.793 804.557, 538.165 798.976, 546.463 793.396, 554.762 791.626, 557.394 787.156, 566.339 782.687, 575.285 781.264, 578.132 " />
            <path fill="none" stroke-width="3.0" stroke-linecap="butt" stroke-opacity="1.0" stroke="rgb(0, 0, 0)" stroke-linejoin="miter" d=" M 937.136, 643.332 927.906, 639.482 918.677, 635.632 909.448, 631.782 900.219, 627.933 890.989, 624.083 881.760, 620.233 872.531, 616.383 863.302, 612.534 854.072, 608.684 844.843, 604.834 835.614, 600.985 826.384, 597.135 819.080, 594.088 809.858, 590.221 802.396, 587.092 793.183, 583.204 788.573, 581.259 781.264, 578.132 782.533, 578.592 791.776, 582.408 792.196, 582.581 801.425, 586.430 807.716, 589.052 816.938, 592.919 826.160, 596.786 835.382, 600.653 844.604, 604.520 853.826, 608.386 863.048, 612.253 872.271, 616.120 881.493, 619.987 890.715, 623.854 899.937, 627.721 909.159, 631.587 918.381, 635.454 927.603, 639.321 937.142, 643.320 " />
            <path fill="none" stroke-width="3.0" stroke-linecap="butt" stroke-opacity="1.0" stroke="rgb(0, 0, 0)" stroke-linejoin="miter" d=" M 944.710, 634.265 945.781, 624.323 946.852, 614.381 947.923, 604.438 948.994, 594.496 950.065, 584.553 951.136, 574.611 952.207, 564.668 953.279, 554.726 954.350, 544.783 955.421, 534.841 956.492, 524.898 957.563, 514.956 958.634, 505.013 959.050, 501.159 960.736, 491.302 962.002, 483.906 964.651, 474.263 965.153, 472.435 967.643, 469.785 968.819, 476.504 968.519, 486.500 968.394, 490.664 967.338, 500.608 966.499, 508.503 964.846, 518.365 963.192, 528.227 961.538, 538.090 959.884, 547.952 958.231, 557.814 956.577, 567.677 954.923, 577.539 953.269, 587.401 951.616, 597.264 949.962, 607.126 948.308, 616.988 946.654, 626.851 945.521, 633.608 " />
            <path fill="none" stroke-width="3.0" stroke-linecap="butt" stroke-opacity="1.0" stroke="rgb(0, 0, 0)" stroke-linejoin="miter" d=" M 1100.648, 545.889 1093.688, 538.709 1086.727, 531.529 1085.558, 530.323 1077.716, 524.118 1069.874, 517.913 1067.309, 515.884 1058.720, 510.762 1050.131, 505.640 1047.356, 503.984 1038.260, 500.072 1029.074, 496.121 1026.045, 494.818 1016.420, 492.104 1006.795, 489.390 1006.137, 489.205 1003.741, 488.529 993.844, 487.098 983.947, 485.667 980.825, 485.216 " />
            <path fill="none" stroke-width="3.0" stroke-linecap="butt" stroke-opacity="1.0" stroke="rgb(0, 0, 0)" stroke-linejoin="miter" d=" M 980.825, 485.216 978.634, 487.982 976.545, 497.761 976.152, 499.599 974.959, 509.528 974.062, 516.989 973.437, 526.970 972.811, 536.950 972.186, 546.931 971.561, 556.911 970.936, 566.891 970.310, 576.872 969.685, 586.852 969.060, 596.833 968.434, 606.813 967.809, 616.794 967.184, 626.774 966.972, 630.149 " />
            <path fill="none" stroke-width="3.0" stroke-linecap="butt" stroke-opacity="1.0" stroke="rgb(0, 0, 0)" stroke-linejoin="miter" d=" M 368.550, 824.276 368.293, 834.272 368.036, 844.269 367.779, 854.266 367.523, 864.262 367.449, 867.146 367.400, 869.040 367.143, 879.036 366.992, 884.908 376.992, 884.906 386.992, 884.904 396.992, 884.902 406.992, 884.901 416.992, 884.899 426.992, 884.897 436.992, 884.895 446.992, 884.893 456.992, 884.891 466.992, 884.889 476.992, 884.887 486.992, 884.885 496.992, 884.883 498.725, 884.883 505.945, 884.882 515.945, 884.880 525.945, 884.878 535.945, 884.876 545.945, 884.874 555.945, 884.872 565.945, 884.870 575.945, 884.868 585.945, 884.866 595.945, 884.865 605.945, 884.863 615.945, 884.861 625.945, 884.859 635.945, 884.857 645.945, 884.855 655.945, 884.853 665.945, 884.851 675.945, 884.849 685.945, 884.847 695.945, 884.846 705.945, 884.844 715.945, 884.842 725.945, 884.840 735.945, 884.838 745.945, 884.836 755.945, 884.834 765.945, 884.832 775.945, 884.830 785.945, 884.828 795.945, 884.826 805.945, 884.825 815.945, 884.823 825.945, 884.821 835.945, 884.819 845.945, 884.817 855.945, 884.815 865.945, 884.813 875.945, 884.811 885.945, 884.809 895.945, 884.807 905.945, 884.806 915.945, 884.804 925.945, 884.802 932.710, 884.800 932.777, 874.801 932.844, 864.801 932.912, 854.801 932.923, 853.101 932.935, 851.407 932.935, 851.406 932.935, 851.406 932.939, 850.787 933.006, 840.787 933.073, 830.787 933.105, 826.104 923.177, 824.904 916.500, 824.096 906.500, 824.063 897.467, 824.032 890.208, 824.008 880.208, 823.974 870.208, 823.941 863.852, 823.920 853.852, 823.886 843.852, 823.853 833.852, 823.819 823.852, 823.785 813.852, 823.752 810.003, 823.739 802.526, 823.714 792.526, 823.680 782.526, 823.647 773.749, 823.617 763.749, 823.584 753.749, 823.550 749.532, 823.536 739.532, 823.503 729.532, 823.469 719.532, 823.436 709.532, 823.402 699.532, 823.369 689.533, 823.335 679.533, 823.302 669.533, 823.268 659.533, 823.235 649.533, 823.201 639.533, 823.167 629.533, 823.134 621.903, 823.108 613.232, 823.079 607.595, 823.060 605.665, 823.054 595.665, 823.020 585.665, 822.987 575.665, 822.953 565.666, 822.920 555.666, 822.886 545.666, 822.853 535.666, 822.819 525.666, 822.786 515.666, 822.752 505.666, 822.719 495.666, 822.685 485.666, 822.652 475.666, 822.618 465.666, 822.585 455.666, 822.551 445.666, 822.517 435.666, 822.484 425.666, 822.450 415.666, 822.417 405.666, 822.383 395.667, 822.350 385.667, 822.316 375.966, 822.284 368.550, 824.276 " />
            <path fill="none" stroke-width="3.0" stroke-linecap="butt" stroke-opacity="1.0" stroke="rgb(0, 0, 0)" stroke-linejoin="miter" d=" M 933.105, 826.104 923.105, 826.072 913.105, 826.039 903.105, 826.007 897.452, 825.989 887.452, 825.956 877.452, 825.924 867.452, 825.891 866.706, 825.889 856.706, 825.857 846.706, 825.824 836.706, 825.792 826.706, 825.760 816.706, 825.727 809.981, 825.705 799.981, 825.673 789.981, 825.641 779.981, 825.608 773.726, 825.588 763.726, 825.556 753.726, 825.523 743.726, 825.491 733.726, 825.458 723.726, 825.426 713.726, 825.394 703.726, 825.361 693.726, 825.329 683.726, 825.296 673.726, 825.264 663.726, 825.232 653.726, 825.199 643.726, 825.167 633.726, 825.134 623.726, 825.102 613.198, 825.068 605.630, 825.044 595.630, 825.011 585.630, 824.979 575.630, 824.946 565.630, 824.914 555.630, 824.882 545.630, 824.849 535.630, 824.817 525.630, 824.784 515.631, 824.752 505.631, 824.720 495.631, 824.687 485.631, 824.655 475.631, 824.622 465.631, 824.590 455.631, 824.558 445.631, 824.525 435.631, 824.493 425.631, 824.461 415.631, 824.428 405.631, 824.396 395.631, 824.363 385.631, 824.331 375.631, 824.299 368.550, 824.276 " />
            <path fill="none" stroke-width="3.0" stroke-linecap="butt" stroke-opacity="1.0" stroke="rgb(0, 0, 0)" stroke-linejoin="miter" d=" M 810.003, 823.739 810.111, 813.740 810.220, 803.740 810.250, 800.976 810.254, 800.544 810.363, 790.545 810.472, 780.545 810.580, 770.546 810.638, 765.273 810.746, 755.274 810.840, 746.641 801.775, 746.570 791.775, 746.491 781.776, 746.413 771.776, 746.335 761.776, 746.257 751.777, 746.178 741.777, 746.100 731.777, 746.022 721.778, 745.944 711.778, 745.865 701.778, 745.787 691.779, 745.709 681.779, 745.631 671.779, 745.552 661.779, 745.474 651.780, 745.396 641.780, 745.318 631.780, 745.239 621.781, 745.161 611.781, 745.083 608.972, 745.061 607.031, 745.989 606.854, 755.988 606.677, 765.986 606.500, 775.985 606.322, 785.983 606.145, 795.981 606.081, 799.585 606.073, 800.022 605.896, 810.020 605.719, 820.019 605.665, 823.054 " />
            <path fill="none" stroke-width="3.0" stroke-linecap="butt" stroke-opacity="1.0" stroke="rgb(0, 0, 0)" stroke-linejoin="miter" d=" M 606.081, 799.585 596.081, 799.538 586.081, 799.491 576.082, 799.444 566.082, 799.397 556.082, 799.350 546.082, 799.303 536.082, 799.256 526.082, 799.209 516.082, 799.162 506.082, 799.115 496.082, 799.068 486.083, 799.021 476.083, 798.974 466.083, 798.927 456.083, 798.880 446.083, 798.833 436.083, 798.786 426.083, 798.739 416.083, 798.692 406.083, 798.645 396.084, 798.598 386.084, 798.551 376.084, 798.504 366.084, 798.457 356.084, 798.410 346.084, 798.363 336.084, 798.316 326.084, 798.270 316.084, 798.223 306.085, 798.176 296.085, 798.129 286.085, 798.082 276.085, 798.035 266.085, 797.988 256.085, 797.941 246.085, 797.894 236.085, 797.847 226.085, 797.800 216.086, 797.753 206.086, 797.706 196.086, 797.659 186.086, 797.612 176.086, 797.565 166.086, 797.518 156.086, 797.471 146.086, 797.424 136.086, 797.377 126.087, 797.330 116.087, 797.283 106.028, 797.236 96.672, 797.641 96.324, 807.635 95.976, 817.629 95.628, 827.623 95.279, 837.617 94.931, 847.611 94.583, 857.605 94.235, 867.599 94.192, 868.847 104.192, 868.854 114.192, 868.861 124.192, 868.868 134.192, 868.875 144.192, 868.882 154.192, 868.889 164.192, 868.896 174.192, 868.903 184.192, 868.910 194.192, 868.917 204.192, 868.924 214.191, 868.931 224.191, 868.938 234.191, 868.946 244.191, 868.953 254.191, 868.960 264.191, 868.967 274.191, 868.974 284.191, 868.981 294.191, 868.988 304.191, 868.995 314.191, 869.002 324.191, 869.009 334.191, 869.016 344.191, 869.023 354.191, 869.030 364.191, 869.037 367.400, 869.040 " />
            <path fill="none" stroke-width="3.0" stroke-linecap="butt" stroke-opacity="1.0" stroke="rgb(0, 0, 0)" stroke-linejoin="miter" d=" M 897.467, 824.032 897.546, 814.033 897.626, 804.033 897.647, 801.384 890.397, 800.921 880.397, 800.874 870.397, 800.827 860.397, 800.780 850.397, 800.733 840.398, 800.686 836.697, 800.669 826.697, 800.622 816.697, 800.575 810.254, 800.544 " />
            <path fill="none" stroke-width="3.0" stroke-linecap="butt" stroke-opacity="1.0" stroke="rgb(0, 0, 0)" stroke-linejoin="miter" d=" M 897.647, 801.384 887.647, 801.338 877.647, 801.291 867.647, 801.244 857.647, 801.197 847.647, 801.151 837.064, 801.101 827.065, 801.055 817.065, 801.008 810.250, 800.976 " />
            <path fill="none" stroke-width="3.0" stroke-linecap="butt" stroke-opacity="1.0" stroke="rgb(0, 0, 0)" stroke-linejoin="miter" d=" M 1140.246, 521.036 1140.244, 511.036 1140.242, 501.036 1140.240, 491.036 1140.237, 481.036 1140.235, 471.036 1140.233, 461.036 1140.231, 451.036 1140.229, 441.036 1140.226, 431.036 1140.224, 421.036 1140.222, 411.036 1140.220, 401.036 1140.218, 391.036 1140.215, 381.036 1140.213, 371.036 1140.211, 361.036 1140.209, 351.036 1140.207, 341.036 1140.204, 331.036 1140.202, 321.036 1140.201, 315.808 1130.207, 315.474 1120.212, 315.139 1110.218, 314.805 1100.223, 314.471 1090.229, 314.136 1080.234, 313.802 1070.240, 313.467 1060.246, 313.133 1050.251, 312.799 1040.257, 312.464 1038.868, 312.418 1031.555, 319.238 1024.242, 326.058 1016.928, 332.878 1009.615, 339.699 1006.773, 342.349 1006.730, 352.349 1006.687, 362.348 1006.643, 372.348 1006.600, 382.348 1006.557, 392.348 1006.513, 402.348 1006.470, 412.348 1006.427, 422.348 1006.384, 432.348 1006.340, 442.348 1006.297, 452.348 1006.254, 462.348 1006.210, 472.347 1006.167, 482.347 1006.137, 489.205 " />
            <path fill="none" stroke-width="3.0" stroke-linecap="butt" stroke-opacity="1.0" stroke="rgb(0, 0, 0)" stroke-linejoin="miter" d=" M 1314.820, 518.858 1314.758, 508.858 1314.697, 498.858 1314.635, 488.858 1314.574, 478.859 1314.513, 468.859 1314.451, 458.859 1314.410, 452.192 1304.414, 451.935 1294.417, 451.679 1284.420, 451.422 1274.423, 451.166 1264.427, 450.909 1254.430, 450.653 1244.433, 450.396 1234.437, 450.140 1224.440, 449.884 1214.443, 449.627 1204.446, 449.371 1194.450, 449.114 1187.958, 448.948 1179.042, 453.476 1170.126, 458.004 1161.210, 462.532 1152.294, 467.060 1147.055, 469.721 1147.060, 479.721 1147.064, 489.721 1147.069, 499.721 1147.073, 509.721 1147.076, 516.786 " />
            <path fill="none" stroke-width="3.0" stroke-linecap="butt" stroke-opacity="1.0" stroke="rgb(0, 0, 0)" stroke-linejoin="miter" d=" M 1489.147, 686.356 1489.027, 676.357 1488.907, 666.358 1488.787, 656.358 1488.668, 646.359 1488.543, 635.941 1478.544, 635.793 1468.545, 635.644 1458.546, 635.496 1448.547, 635.348 1448.116, 635.341 1438.117, 635.193 1428.118, 635.045 1418.119, 634.896 1408.120, 634.748 1398.122, 634.600 1394.805, 634.551 1384.806, 634.402 1374.807, 634.254 1364.808, 634.106 1354.809, 633.958 1344.810, 633.809 1334.812, 633.661 1331.339, 633.609 1321.340, 633.461 1315.523, 633.375 1311.948, 633.322 1302.119, 635.168 1292.291, 637.013 1284.621, 638.454 1274.793, 640.300 1266.638, 641.831 1263.196, 642.478 1263.239, 652.478 1263.283, 662.478 1263.327, 672.477 1263.370, 682.477 1263.414, 692.477 1263.428, 695.619 " />
            <path fill="none" stroke-width="3.0" stroke-linecap="butt" stroke-opacity="1.0" stroke="rgb(0, 0, 0)" stroke-linejoin="miter" d=" M 1801.175, 854.968 1811.175, 854.985 1821.175, 855.001 1831.175, 855.017 1835.278, 855.024 1835.043, 845.027 1834.808, 835.030 1834.573, 825.032 1834.338, 815.035 1834.102, 805.038 1833.867, 795.041 1833.632, 785.043 1833.397, 775.046 1833.162, 765.049 1832.927, 755.052 1832.692, 745.054 1832.457, 735.057 1832.221, 725.060 1832.126, 721.009 1822.127, 720.910 1812.127, 720.811 1802.128, 720.712 1792.903, 720.621 " />
            <path fill="none" stroke-width="3.0" stroke-linecap="butt" stroke-opacity="1.0" stroke="rgb(0, 0, 0)" stroke-linejoin="miter" d=" M 1399.311, 576.886 1389.313, 576.703 1379.314, 576.520 1369.316, 576.338 1359.318, 576.155 1349.319, 575.972 1339.321, 575.789 1330.952, 575.636 1321.265, 578.117 1315.193, 579.672 " />
            <path fill="none" stroke-width="3.0" stroke-linecap="butt" stroke-opacity="1.0" stroke="rgb(0, 0, 0)" stroke-linejoin="miter" d=" M 498.725, 884.883 491.930, 885.968 482.083, 887.712 475.924, 888.802 466.114, 890.741 461.309, 891.691 457.067, 892.583 447.306, 894.757 443.683, 895.564 433.991, 898.025 431.786, 898.585 422.192, 901.406 421.403, 901.638 418.109, 902.650 409.150, 905.768 401.777, 908.900 396.016, 912.040 394.009, 913.157 389.827, 916.328 387.299, 919.487 386.863, 920.659 385.992, 923.825 386.807, 926.959 389.302, 930.051 390.569, 931.283 394.762, 934.343 400.625, 937.341 403.646, 938.586 411.190, 941.522 420.367, 944.376 425.121, 945.613 434.808, 948.096 435.899, 948.376 445.675, 950.482 448.241, 951.035 454.635, 952.242 464.471, 954.049 468.455, 954.781 478.332, 956.342 483.740, 957.197 491.598, 958.352 501.506, 959.708 508.174, 960.621 517.437, 961.724 527.367, 962.904 535.159, 963.830 545.107, 964.856 554.138, 965.788 564.090, 966.773 564.406, 966.804 574.366, 967.693 584.270, 968.577 594.235, 969.411 595.579, 969.523 605.550, 970.288 615.521, 971.053 616.136, 971.100 626.111, 971.815 628.310, 971.972 638.288, 972.622 648.267, 973.273 649.356, 973.343 659.337, 973.960 662.202, 974.136 672.187, 974.679 682.172, 975.222 683.526, 975.295 693.512, 975.828 696.846, 976.006 706.835, 976.468 711.217, 976.671 721.208, 977.110 731.198, 977.548 731.816, 977.576 741.808, 977.975 746.350, 978.157 756.344, 978.502 761.794, 978.690 771.789, 979.026 781.163, 979.341 791.159, 979.636 796.451, 979.792 806.448, 980.042 812.505, 980.194 822.502, 980.422 830.164, 980.598 840.162, 980.806 845.748, 980.923 855.746, 981.093 861.946, 981.199 871.946, 981.333 878.715, 981.424 888.714, 981.530 892.892, 981.574 902.892, 981.675 908.798, 981.734 918.798, 981.802 925.129, 981.846 935.129, 981.884 941.836, 981.909 951.836, 981.917 958.868, 981.923 968.868, 981.903 976.175, 981.888 986.175, 981.840 993.704, 981.804 1003.704, 981.729 1011.400, 981.671 1021.400, 981.569 1029.209, 981.489 1039.208, 981.361 1047.076, 981.260 1047.642, 981.251 1057.641, 981.096 1063.900, 980.999 1064.945, 980.983 1074.943, 980.801 1082.762, 980.660 1092.760, 980.452 1100.471, 980.291 1110.468, 980.056 1118.019, 979.879 1128.015, 979.616 1135.351, 979.424 1145.347, 979.133 1152.418, 978.928 1162.413, 978.609 1169.167, 978.393 1179.160, 978.043 1185.548, 977.820 1195.541, 977.440 1201.517, 977.212 1211.509, 976.803 1214.511, 976.680 1224.502, 976.267 1231.345, 975.984 1241.335, 975.536 1247.623, 975.254 1257.611, 974.769 1263.301, 974.493 1273.287, 973.968 1278.338, 973.703 1288.324, 973.170 1295.896, 972.766 1305.880, 972.199 1311.309, 971.890 1321.290, 971.276 1325.940, 970.990 1335.919, 970.349 1345.016, 969.764 1354.994, 969.098 1359.714, 968.783 1369.688, 968.059 1373.496, 967.783 1383.469, 967.037 1393.609, 966.279 1403.578, 965.490 1407.155, 965.207 1417.119, 964.356 1427.210, 963.494 1437.172, 962.630 1440.318, 962.356 1450.273, 961.403 1452.297, 961.209 1462.250, 960.249 1472.204, 959.288 1472.581, 959.252 1482.524, 958.192 1483.846, 958.051 1493.788, 956.974 1503.563, 955.915 1513.492, 954.726 1513.944, 954.672 1523.872, 953.468 1532.909, 952.373 1542.818, 951.029 1550.721, 949.958 1560.287, 948.649 1570.174, 947.149 1577.091, 946.099 1585.400, 944.773 1595.258, 943.093 1601.053, 942.105 1608.000, 940.773 1617.819, 938.882 1622.377, 938.005 1632.145, 935.865 1635.347, 935.164 1640.872, 933.826 1650.569, 931.380 1652.413, 930.915 1662.005, 928.088 1662.468, 927.951 1666.429, 926.633 1674.959, 923.629 1681.951, 920.592 1684.273, 919.316 1689.681, 916.267 1693.523, 913.204 1695.793, 910.135 1696.457, 908.941 1697.142, 905.898 1696.253, 902.867 1695.354, 901.755 1692.921, 898.772 1688.944, 895.819 1683.431, 892.903 1681.147, 891.914 1674.191, 889.075 1665.745, 886.288 1656.104, 883.634 1655.833, 883.560 1652.431, 882.705 1642.695, 880.422 1641.222, 880.077 1635.692, 878.956 " />
            <path fill="none" stroke-width="3.0" stroke-linecap="butt" stroke-opacity="1.0" stroke="rgb(0, 0, 0)" stroke-linejoin="miter" d=" M 607.595, 823.060 607.772, 813.062 607.948, 803.064 608.009, 799.594 608.186, 789.596 608.363, 779.597 608.539, 769.599 608.716, 759.600 608.892, 749.602 608.972, 745.061 " />
            <path fill="none" stroke-width="3.0" stroke-linecap="butt" stroke-opacity="1.0" stroke="rgb(0, 0, 0)" stroke-linejoin="miter" d=" M 606.073, 800.022 596.074, 799.975 586.074, 799.928 576.074, 799.882 566.074, 799.835 556.074, 799.788 546.074, 799.741 536.074, 799.695 526.074, 799.648 516.074, 799.601 506.075, 799.554 496.075, 799.508 486.075, 799.461 476.075, 799.414 466.075, 799.368 456.075, 799.321 446.075, 799.274 436.075, 799.227 426.075, 799.181 416.076, 799.134 406.076, 799.087 396.076, 799.040 386.076, 798.994 376.076, 798.947 366.076, 798.900 356.076, 798.853 346.076, 798.807 336.076, 798.760 326.077, 798.713 316.077, 798.667 306.077, 798.620 296.077, 798.573 286.077, 798.526 276.077, 798.480 266.077, 798.433 256.077, 798.386 246.077, 798.339 236.078, 798.293 226.078, 798.246 216.078, 798.199 206.078, 798.152 196.078, 798.106 186.078, 798.059 176.078, 798.012 166.078, 797.966 156.078, 797.919 146.079, 797.872 136.079, 797.825 126.079, 797.779 116.079, 797.732 106.079, 797.685 96.672, 797.641 " />
            <path fill="none" stroke-width="3.0" stroke-linecap="butt" stroke-opacity="1.0" stroke="rgb(0, 0, 0)" stroke-linejoin="miter" d=" M 1005.486, 639.564 1005.469, 643.514 " />
            <path fill="none" stroke-width="3.0" stroke-linecap="butt" stroke-opacity="1.0" stroke="rgb(0, 0, 0)" stroke-linejoin="miter" d=" M 1016.123, 848.772 1016.012, 848.774 " />
            <path fill="none" stroke-width="3.0" stroke-linecap="butt" stroke-opacity="1.0" stroke="rgb(0, 0, 0)" stroke-linejoin="miter" d=" M 1014.088, 849.416 1016.012, 848.774 1016.137, 848.733 " />
            <path fill="none" stroke-width="3.0" stroke-linecap="butt" stroke-opacity="1.0" stroke="rgb(0, 0, 0)" stroke-linejoin="miter" d=" M 1038.260, 500.072 1038.293, 490.072 1038.325, 480.072 1038.358, 470.072 1038.390, 460.072 1038.422, 450.072 1038.455, 440.072 1038.487, 430.073 1038.520, 420.073 1038.552, 410.073 1038.584, 400.073 1038.617, 390.073 1038.649, 380.073 1038.682, 370.073 1038.714, 360.073 1038.746, 350.073 1038.779, 340.073 1038.811, 330.073 1038.844, 320.073 1038.868, 312.418 " />
            <path fill="none" stroke-width="3.0" stroke-linecap="butt" stroke-opacity="1.0" stroke="rgb(0, 0, 0)" stroke-linejoin="miter" d=" M 1021.063, 630.950 1013.276, 637.224 1005.469, 643.514 997.682, 649.788 989.895, 656.062 985.265, 659.792 " />
            <path fill="none" stroke-width="3.0" stroke-linecap="butt" stroke-opacity="1.0" stroke="rgb(0, 0, 0)" stroke-linejoin="miter" d=" M 1140.273, 641.073 1140.271, 631.073 1140.268, 621.073 1140.266, 611.073 1140.264, 601.073 1140.262, 591.073 1140.259, 581.073 1140.257, 571.073 1140.255, 561.073 1140.255, 559.332 " />
            <path fill="none" stroke-width="3.0" stroke-linecap="butt" stroke-opacity="1.0" stroke="rgb(0, 0, 0)" stroke-linejoin="miter" d=" M 1140.297, 749.189 1140.294, 739.189 1140.292, 729.189 1140.290, 719.189 1140.288, 712.070 " />
            <path fill="none" stroke-width="3.0" stroke-linecap="butt" stroke-opacity="1.0" stroke="rgb(0, 0, 0)" stroke-linejoin="miter" d=" M 1147.094, 555.113 1147.098, 565.113 1147.103, 575.113 1147.107, 585.113 1147.112, 595.113 1147.116, 605.113 1147.121, 615.113 1147.125, 625.113 1147.130, 635.113 1147.134, 645.113 1147.139, 655.113 1147.143, 665.113 1147.148, 675.113 1147.152, 685.113 1147.157, 695.112 1147.161, 705.112 1147.166, 715.112 1147.171, 725.112 1147.175, 735.112 1147.180, 745.112 1147.182, 751.144 " />
            <path fill="none" stroke-width="3.0" stroke-linecap="butt" stroke-opacity="1.0" stroke="rgb(0, 0, 0)" stroke-linejoin="miter" d=" M 1156.796, 753.875 1160.351, 744.528 1163.906, 735.181 1167.461, 725.835 1171.016, 716.488 1174.570, 707.141 1178.125, 697.794 1181.480, 688.974 " />
            <path fill="none" stroke-width="3.0" stroke-linecap="butt" stroke-opacity="1.0" stroke="rgb(0, 0, 0)" stroke-linejoin="miter" d=" M 1188.008, 475.875 1187.990, 465.875 1187.971, 455.875 1187.958, 448.948 " />
            <path fill="none" stroke-width="3.0" stroke-linecap="butt" stroke-opacity="1.0" stroke="rgb(0, 0, 0)" stroke-linejoin="miter" d=" M 1188.404, 690.662 1188.385, 680.662 1188.367, 670.662 1188.349, 660.662 1188.330, 650.662 1188.312, 640.662 1188.293, 630.662 1188.275, 620.662 1188.256, 610.662 1188.238, 600.662 1188.220, 590.662 1188.201, 580.662 1188.183, 570.662 1188.164, 560.662 1188.146, 550.662 1188.127, 540.662 1188.107, 529.786 " />
            <path fill="none" stroke-width="3.0" stroke-linecap="butt" stroke-opacity="1.0" stroke="rgb(0, 0, 0)" stroke-linejoin="miter" d=" M 1312.376, 704.592 1312.316, 694.592 1312.256, 684.592 1312.196, 674.593 1312.136, 664.593 1312.076, 654.593 1312.015, 644.593 1311.955, 634.593 1311.948, 633.322 " />
            <path fill="none" stroke-width="3.0" stroke-linecap="butt" stroke-opacity="1.0" stroke="rgb(0, 0, 0)" stroke-linejoin="miter" d=" M 1315.523, 633.375 1315.461, 623.375 1315.400, 613.375 1315.339, 603.375 1315.277, 593.376 1315.245, 588.111 1315.193, 579.672 1315.132, 569.672 1315.070, 559.673 1315.024, 552.227 " />
            <path fill="none" stroke-width="3.0" stroke-linecap="butt" stroke-opacity="1.0" stroke="rgb(0, 0, 0)" stroke-linejoin="miter" d=" M 1331.339, 633.609 1331.272, 623.610 1331.205, 613.610 1331.139, 603.610 1331.072, 593.610 1331.005, 583.611 1330.952, 575.636 " />
            <path fill="none" stroke-width="3.0" stroke-linecap="butt" stroke-opacity="1.0" stroke="rgb(0, 0, 0)" stroke-linejoin="miter" d=" M 1448.116, 635.341 1448.010, 625.342 1447.904, 615.342 1447.798, 605.343 1447.765, 602.231 " />
            <path fill="none" stroke-width="3.0" stroke-linecap="butt" stroke-opacity="1.0" stroke="rgb(0, 0, 0)" stroke-linejoin="miter" d=" M 1241.780, 763.400 1231.936, 765.159 1222.091, 766.918 1212.247, 768.677 1210.200, 769.043 " />
            <path fill="none" stroke-width="3.0" stroke-linecap="butt" stroke-opacity="1.0" stroke="rgb(0, 0, 0)" stroke-linejoin="miter" d=" M 1428.455, 731.412 1438.299, 729.652 1448.143, 727.892 1449.097, 727.722 1458.941, 725.962 1462.126, 725.393 1471.970, 723.633 1481.814, 721.873 1489.556, 720.489 1499.400, 718.729 1504.555, 717.808 1514.399, 716.048 1524.243, 714.288 1534.087, 712.529 1543.931, 710.769 1553.774, 709.009 1563.618, 707.250 1573.462, 705.490 1583.306, 703.730 1590.550, 702.435 " />
            <path fill="none" stroke-width="3.0" stroke-linecap="butt" stroke-opacity="1.0" stroke="rgb(0, 0, 0)" stroke-linejoin="miter" d=" M 1345.489, 712.243 1355.340, 710.527 1365.192, 708.812 1375.044, 707.096 1384.896, 705.381 1394.748, 703.665 1404.599, 701.950 1414.451, 700.234 1424.303, 698.519 1434.155, 696.803 1444.006, 695.088 1448.742, 694.263 1458.593, 692.548 1468.445, 690.832 1478.297, 689.117 1488.149, 687.401 1489.157, 687.226 1499.009, 685.510 1508.861, 683.795 1518.713, 682.079 1528.564, 680.364 1538.416, 678.649 1548.268, 676.933 1558.120, 675.218 1567.971, 673.502 1577.823, 671.787 1587.675, 670.071 1597.527, 668.356 1607.378, 666.640 1617.230, 664.925 1627.082, 663.209 1636.934, 661.494 1646.785, 659.778 1656.637, 658.063 1663.727, 656.828 " />
            <path fill="none" stroke-width="3.0" stroke-linecap="butt" stroke-opacity="1.0" stroke="rgb(0, 0, 0)" stroke-linejoin="miter" d=" M 1770.862, 720.402 1760.863, 720.304 1750.863, 720.205 1740.864, 720.106 1730.864, 720.007 1720.865, 719.908 1710.865, 719.809 1700.866, 719.710 1690.866, 719.611 1680.867, 719.512 1670.867, 719.413 1664.846, 719.353 " />
        </g>
    </g>
</svg>
