<?xml version="1.0" encoding="UTF-8"?>
<svg width="16px" height="10px" viewBox="0 0 16 10" version="1.1" xmlns="http://www.w3.org/2000/svg" xmlns:xlink="http://www.w3.org/1999/xlink">
    <title>Path_24</title>
    <g id="Page-1" stroke="none" stroke-width="1" fill="none" fill-rule="evenodd">
        <g id="angle-down-select" transform="translate(-0.000383, 0.000806)" fill="#333333" fill-rule="nonzero">
            <path d="M15.5053834,0.193194034 C15.3824393,0.0695327796 15.2152604,0 15.0408834,0 C14.8665064,0 14.6993274,0.0695327796 14.5763834,0.193194034 L7.84938338,7.57519403 L1.12138338,0.193194034 C0.998439346,0.0695327796 0.831260395,0 0.656883383,0 C0.482506372,0 0.31532742,0.0695327796 0.192383383,0.193194034 C-0.0641277944,0.451691727 -0.0641277944,0.868696341 0.192383383,1.12719403 L7.35138338,8.98219403 C7.48344103,9.11347109 7.6655902,9.18159489 7.85138338,9.16919403 C8.03719586,9.1817266 8.21939761,9.11358314 8.35138338,8.98219403 L15.5113834,1.12619403 C15.7661255,0.866392515 15.7634458,0.449697775 15.5053834,0.193194034 L15.5053834,0.193194034 Z" id="Path_24"></path>
        </g>
    </g>
</svg>