<?xml version="1.0" encoding="UTF-8"?>
<svg width="27px" height="33px" viewBox="0 0 27 33" version="1.1" xmlns="http://www.w3.org/2000/svg" xmlns:xlink="http://www.w3.org/1999/xlink">
    <title>Group 2</title>
    <g id="Page-1" stroke="none" stroke-width="1" fill="none" fill-rule="evenodd">
        <g id="Group-2" transform="translate(13.038277, 16.317000) scale(1, -1) translate(-13.038277, -16.317000) translate(0.005644, -0.000001)" fill="#333333" fill-rule="nonzero">
            <g id="Group">
                <path d="M13.029356,32.6340008 C12.7532136,32.6340008 12.529356,32.4101432 12.529356,32.1340008 L12.529356,0.500000799 C12.529356,0.223858424 12.7532136,7.98565992e-07 13.029356,7.98565992e-07 C13.3054984,7.98565992e-07 13.529356,0.223858424 13.529356,0.500000799 L13.529356,32.1340008 C13.529356,32.4101432 13.3054984,32.6340008 13.029356,32.6340008 Z" id="Path_3"></path>
                <path d="M25.564356,13.5360016 C25.4316571,13.5362378 25.3043067,13.4837147 25.210356,13.3900008 L13.031356,1.2070008 L0.84735601,13.3900008 C0.651166567,13.5794869 0.339313622,13.576777 0.146446723,13.3839101 C-0.0464201766,13.1910432 -0.0491300944,12.8791902 0.14035601,12.6830008 L12.678356,0.146000799 C12.7720615,0.0525318451 12.8990036,-1.77635684e-15 13.031356,-1.77635684e-15 L13.031356,-1.77635684e-15 C13.1640549,-0.000236197802 13.2914053,0.0522868496 13.385356,0.146000799 L25.918356,12.6820008 C26.0617329,12.825015 26.1046862,13.0403902 26.0271403,13.2274641 C25.9495945,13.4145379 25.7668649,13.5363631 25.564356,13.5360016 Z" id="Path_4"></path>
            </g>
        </g>
    </g>
</svg>