<svg width="267" height="262" viewBox="0 0 267 262" fill="none" xmlns="http://www.w3.org/2000/svg">
<path d="M34.3949 72.3566C34.3949 72.3566 18.1401 134.996 24.4587 150.961C24.4587 150.961 35.8143 24.9922 137.055 72.3566C157.705 62.3907 201.215 67.0833 226.743 88.7907C239.121 95.4832 244 156 244 156L240.215 82.4341L218 45L174.5 19L137.055 11L102 19L56 45L34.3949 72.3566Z" fill="#333333" stroke="#333333" stroke-width="20"/>
<g>
<path d="M229.104 220.45C230.708 218.901 246.786 180.802 237.945 173.01C229.104 165.218 146 162.228 146 173.01C146 183.792 152.5 209 155.2 213.588C157.9 218.175 227.5 222 229.104 220.45Z" stroke="#333333" stroke-width="10"/>
<path d="M114 246C120.681 256.607 141.91 256.726 148 246" stroke="#333333" stroke-width="15"/>
<path d="M35.4793 220.45C33.8751 218.901 17.7975 180.802 26.6384 173.01C35.4793 165.218 118.584 162.228 118.584 173.01C118.584 183.792 112.084 209 109.384 213.588C106.684 218.175 37.0835 222 35.4793 220.45Z" stroke="#333333" stroke-width="10"/>
<path d="M114 174H148" stroke="#333333" stroke-width="10"/>
<path d="M243 193H261L255 254" stroke="#333333" stroke-width="10"/>
<path d="M24 193H6L12 254" stroke="#333333" stroke-width="10"/>
  <animateMotion path="M 0 0 H -2 H 2 Z" begin="0s" dur="3s" repeatCount="indefinite" />
</g>
<g>
  <circle cx="83" cy="180" r="8" fill="#333333"/>
  <circle cx="178" cy="180" r="8" fill="#333333"/>
  <animateMotion path="M 0 0 H -10 H 10 Z" begin="0s" dur="3s" repeatCount="indefinite"  />
</g>
</svg>
